<svg width="32" height="32" viewBox="0 0 32 32" fill="none" xmlns="http://www.w3.org/2000/svg">
<path d="M16 30.3333C8.09329 30.3333 1.66663 23.9066 1.66663 16C1.66663 8.09329 8.09329 1.66663 16 1.66663C23.9066 1.66663 30.3333 8.09329 30.3333 16C30.3333 23.9066 23.9066 30.3333 16 30.3333ZM16 3.66663C9.19996 3.66663 3.66663 9.19996 3.66663 16C3.66663 22.8 9.19996 28.3333 16 28.3333C22.8 28.3333 28.3333 22.8 28.3333 16C28.3333 9.19996 22.8 3.66663 16 3.66663Z" fill="#11DF9A"/>
<path d="M14.1067 20.7733C13.84 20.7733 13.5867 20.6667 13.4 20.48L9.62667 16.7067C9.24 16.32 9.24 15.68 9.62667 15.2933C10.0133 14.9067 10.6533 14.9067 11.04 15.2933L14.1067 18.36L20.96 11.5067C21.3467 11.12 21.9867 11.12 22.3733 11.5067C22.76 11.8933 22.76 12.5333 22.3733 12.92L14.8133 20.48C14.6267 20.6667 14.3733 20.7733 14.1067 20.7733Z" fill="#11DF9A"/>
</svg>
